STARTFONT 2.1
FONTBOUNDINGBOX 3 6 0 0
COMMENT "Generated by GFX Font Editor"
STARTPROPERTIES 4
FONT_NAME _Fixed4x6_
PIXEL_SIZE 6
FONT_ASCENT 5
FONT_DESCENT 1
ENDPROPERTIES
CHARS 94
STARTCHAR 32
ENCODING 32
DWIDTH 4 0
BBX 0 0 0 0
BITMAP
ENDCHAR
STARTCHAR 33
ENCODING 33
DWIDTH 4 0
BBX 1 5 1 0
BITMAP
80
80
80
00
80
ENDCHAR
STARTCHAR 34
ENCODING 34
DWIDTH 4 0
BBX 3 2 0 3
BITMAP
A0
A0
ENDCHAR
STARTCHAR 35
ENCODING 35
DWIDTH 4 0
BBX 3 5 0 0
BITMAP
A0
E0
A0
E0
A0
ENDCHAR
STARTCHAR 36
ENCODING 36
DWIDTH 4 0
BBX 3 5 0 0
BITMAP
60
C0
60
C0
40
ENDCHAR
STARTCHAR 37
ENCODING 37
DWIDTH 4 0
BBX 3 5 0 0
BITMAP
A0
20
40
80
A0
ENDCHAR
STARTCHAR 38
ENCODING 38
DWIDTH 4 0
BBX 3 5 0 0
BITMAP
C0
C0
E0
A0
60
ENDCHAR
STARTCHAR 39
ENCODING 39
DWIDTH 4 0
BBX 1 2 1 3
BITMAP
80
80
ENDCHAR
STARTCHAR 40
ENCODING 40
DWIDTH 4 0
BBX 2 5 1 0
BITMAP
40
80
80
80
40
ENDCHAR
STARTCHAR 41
ENCODING 41
DWIDTH 4 0
BBX 2 5 0 0
BITMAP
80
40
40
40
80
ENDCHAR
STARTCHAR 42
ENCODING 42
DWIDTH 4 0
BBX 3 3 0 2
BITMAP
A0
40
A0
ENDCHAR
STARTCHAR 43
ENCODING 43
DWIDTH 4 0
BBX 3 3 0 1
BITMAP
40
E0
40
ENDCHAR
STARTCHAR 44
ENCODING 44
DWIDTH 4 0
BBX 2 2 0 0
BITMAP
40
80
ENDCHAR
STARTCHAR 45
ENCODING 45
DWIDTH 4 0
BBX 3 1 0 2
BITMAP
E0
ENDCHAR
STARTCHAR 46
ENCODING 46
DWIDTH 4 0
BBX 1 1 1 0
BITMAP
80
ENDCHAR
STARTCHAR 47
ENCODING 47
DWIDTH 4 0
BBX 3 5 0 0
BITMAP
20
40
40
80
80
ENDCHAR
STARTCHAR 48
ENCODING 48
DWIDTH 4 0
BBX 3 5 0 0
BITMAP
E0
A0
A0
A0
E0
ENDCHAR
STARTCHAR 49
ENCODING 49
DWIDTH 4 0
BBX 3 5 0 0
BITMAP
C0
40
40
40
E0
ENDCHAR
STARTCHAR 50
ENCODING 50
DWIDTH 4 0
BBX 3 5 0 0
BITMAP
E0
20
E0
80
E0
ENDCHAR
STARTCHAR 51
ENCODING 51
DWIDTH 4 0
BBX 3 5 0 0
BITMAP
E0
20
60
20
E0
ENDCHAR
STARTCHAR 52
ENCODING 52
DWIDTH 4 0
BBX 3 5 0 0
BITMAP
A0
A0
E0
20
20
ENDCHAR
STARTCHAR 53
ENCODING 53
DWIDTH 4 0
BBX 3 5 0 0
BITMAP
E0
80
E0
20
E0
ENDCHAR
STARTCHAR 54
ENCODING 54
DWIDTH 4 0
BBX 3 5 0 0
BITMAP
E0
80
E0
A0
E0
ENDCHAR
STARTCHAR 55
ENCODING 55
DWIDTH 4 0
BBX 3 5 0 0
BITMAP
E0
20
20
40
40
ENDCHAR
STARTCHAR 56
ENCODING 56
DWIDTH 4 0
BBX 3 5 0 0
BITMAP
E0
A0
E0
A0
E0
ENDCHAR
STARTCHAR 57
ENCODING 57
DWIDTH 4 0
BBX 3 5 0 0
BITMAP
E0
A0
E0
20
E0
ENDCHAR
STARTCHAR 58
ENCODING 58
DWIDTH 2 0
BBX 1 3 0 1
BITMAP
80
00
80
ENDCHAR
STARTCHAR 59
ENCODING 59
DWIDTH 4 0
BBX 2 4 0 0
BITMAP
40
00
40
80
ENDCHAR
STARTCHAR 60
ENCODING 60
DWIDTH 4 0
BBX 3 5 0 0
BITMAP
20
40
80
40
20
ENDCHAR
STARTCHAR 61
ENCODING 61
DWIDTH 4 0
BBX 3 3 0 1
BITMAP
E0
00
E0
ENDCHAR
STARTCHAR 62
ENCODING 62
DWIDTH 4 0
BBX 3 5 0 0
BITMAP
80
40
20
40
80
ENDCHAR
STARTCHAR 63
ENCODING 63
DWIDTH 4 0
BBX 3 5 0 0
BITMAP
E0
20
40
00
40
ENDCHAR
STARTCHAR 64
ENCODING 64
DWIDTH 4 0
BBX 3 5 0 0
BITMAP
40
A0
E0
80
60
ENDCHAR
STARTCHAR 65
ENCODING 65
DWIDTH 4 0
BBX 3 5 0 0
BITMAP
E0
A0
E0
A0
A0
ENDCHAR
STARTCHAR 66
ENCODING 66
DWIDTH 4 0
BBX 3 5 0 0
BITMAP
C0
A0
E0
A0
C0
ENDCHAR
STARTCHAR 67
ENCODING 67
DWIDTH 4 0
BBX 3 5 0 0
BITMAP
E0
80
80
80
E0
ENDCHAR
STARTCHAR 68
ENCODING 68
DWIDTH 4 0
BBX 3 5 0 0
BITMAP
C0
A0
A0
A0
E0
ENDCHAR
STARTCHAR 69
ENCODING 69
DWIDTH 4 0
BBX 3 5 0 0
BITMAP
E0
80
C0
80
E0
ENDCHAR
STARTCHAR 70
ENCODING 70
DWIDTH 4 0
BBX 3 5 0 0
BITMAP
E0
80
C0
80
80
ENDCHAR
STARTCHAR 71
ENCODING 71
DWIDTH 4 0
BBX 3 5 0 0
BITMAP
E0
80
80
A0
E0
ENDCHAR
STARTCHAR 72
ENCODING 72
DWIDTH 4 0
BBX 3 5 0 0
BITMAP
A0
A0
E0
A0
A0
ENDCHAR
STARTCHAR 73
ENCODING 73
DWIDTH 4 0
BBX 3 5 0 0
BITMAP
E0
40
40
40
E0
ENDCHAR
STARTCHAR 74
ENCODING 74
DWIDTH 4 0
BBX 3 5 0 0
BITMAP
60
20
20
A0
E0
ENDCHAR
STARTCHAR 75
ENCODING 75
DWIDTH 4 0
BBX 3 5 0 0
BITMAP
A0
A0
C0
A0
A0
ENDCHAR
STARTCHAR 76
ENCODING 76
DWIDTH 4 0
BBX 3 5 0 0
BITMAP
80
80
80
80
E0
ENDCHAR
STARTCHAR 77
ENCODING 77
DWIDTH 4 0
BBX 3 5 0 0
BITMAP
A0
E0
E0
A0
A0
ENDCHAR
STARTCHAR 78
ENCODING 78
DWIDTH 4 0
BBX 3 5 0 0
BITMAP
E0
A0
A0
A0
A0
ENDCHAR
STARTCHAR 79
ENCODING 79
DWIDTH 4 0
BBX 3 5 0 0
BITMAP
40
A0
A0
A0
40
ENDCHAR
STARTCHAR 80
ENCODING 80
DWIDTH 4 0
BBX 3 5 0 0
BITMAP
E0
A0
E0
80
80
ENDCHAR
STARTCHAR 81
ENCODING 81
DWIDTH 4 0
BBX 3 5 0 0
BITMAP
E0
A0
A0
E0
20
ENDCHAR
STARTCHAR 82
ENCODING 82
DWIDTH 4 0
BBX 3 5 0 0
BITMAP
E0
A0
C0
A0
A0
ENDCHAR
STARTCHAR 83
ENCODING 83
DWIDTH 4 0
BBX 3 5 0 0
BITMAP
60
80
40
20
C0
ENDCHAR
STARTCHAR 84
ENCODING 84
DWIDTH 4 0
BBX 3 5 0 0
BITMAP
E0
40
40
40
40
ENDCHAR
STARTCHAR 85
ENCODING 85
DWIDTH 4 0
BBX 3 5 0 0
BITMAP
A0
A0
A0
A0
E0
ENDCHAR
STARTCHAR 86
ENCODING 86
DWIDTH 4 0
BBX 3 5 0 0
BITMAP
A0
A0
A0
A0
40
ENDCHAR
STARTCHAR 87
ENCODING 87
DWIDTH 4 0
BBX 3 5 0 0
BITMAP
A0
A0
A0
E0
E0
ENDCHAR
STARTCHAR 88
ENCODING 88
DWIDTH 4 0
BBX 3 5 0 0
BITMAP
A0
A0
40
A0
A0
ENDCHAR
STARTCHAR 89
ENCODING 89
DWIDTH 4 0
BBX 3 5 0 0
BITMAP
A0
A0
40
40
40
ENDCHAR
STARTCHAR 90
ENCODING 90
DWIDTH 4 0
BBX 3 5 0 0
BITMAP
E0
20
40
80
E0
ENDCHAR
STARTCHAR 91
ENCODING 91
DWIDTH 4 0
BBX 3 5 0 0
BITMAP
E0
80
80
80
E0
ENDCHAR
STARTCHAR 92
ENCODING 92
DWIDTH 4 0
BBX 3 5 0 0
BITMAP
80
40
40
20
20
ENDCHAR
STARTCHAR 93
ENCODING 93
DWIDTH 4 0
BBX 3 5 0 0
BITMAP
E0
20
20
20
E0
ENDCHAR
STARTCHAR 94
ENCODING 94
DWIDTH 4 0
BBX 3 2 0 3
BITMAP
40
A0
ENDCHAR
STARTCHAR 95
ENCODING 95
DWIDTH 4 0
BBX 3 1 0 0
BITMAP
E0
ENDCHAR
STARTCHAR 96
ENCODING 96
DWIDTH 4 0
BBX 2 2 0 3
BITMAP
80
40
ENDCHAR
STARTCHAR 97
ENCODING 97
DWIDTH 4 0
BBX 3 4 0 0
BITMAP
C0
60
A0
E0
ENDCHAR
STARTCHAR 98
ENCODING 98
DWIDTH 4 0
BBX 3 5 0 0
BITMAP
80
C0
A0
A0
C0
ENDCHAR
STARTCHAR 99
ENCODING 99
DWIDTH 4 0
BBX 3 4 0 0
BITMAP
60
80
80
60
ENDCHAR
STARTCHAR 100
ENCODING 100
DWIDTH 4 0
BBX 3 5 0 0
BITMAP
20
60
A0
A0
60
ENDCHAR
STARTCHAR 101
ENCODING 101
DWIDTH 4 0
BBX 3 4 0 0
BITMAP
60
A0
C0
60
ENDCHAR
STARTCHAR 102
ENCODING 102
DWIDTH 4 0
BBX 3 5 0 0
BITMAP
20
40
E0
40
40
ENDCHAR
STARTCHAR 103
ENCODING 103
DWIDTH 4 0
BBX 3 5 0 -1
BITMAP
60
A0
E0
20
40
ENDCHAR
STARTCHAR 104
ENCODING 104
DWIDTH 4 0
BBX 3 5 0 0
BITMAP
80
C0
A0
A0
A0
ENDCHAR
STARTCHAR 105
ENCODING 105
DWIDTH 4 0
BBX 1 5 1 0
BITMAP
80
00
80
80
80
ENDCHAR
STARTCHAR 106
ENCODING 106
DWIDTH 4 0
BBX 3 6 0 -1
BITMAP
20
00
20
20
A0
40
ENDCHAR
STARTCHAR 107
ENCODING 107
DWIDTH 4 0
BBX 3 5 0 0
BITMAP
80
A0
C0
C0
A0
ENDCHAR
STARTCHAR 108
ENCODING 108
DWIDTH 4 0
BBX 3 5 0 0
BITMAP
C0
40
40
40
E0
ENDCHAR
STARTCHAR 109
ENCODING 109
DWIDTH 4 0
BBX 3 4 0 0
BITMAP
E0
E0
E0
A0
ENDCHAR
STARTCHAR 110
ENCODING 110
DWIDTH 4 0
BBX 3 4 0 0
BITMAP
C0
A0
A0
A0
ENDCHAR
STARTCHAR 111
ENCODING 111
DWIDTH 4 0
BBX 3 4 0 0
BITMAP
40
A0
A0
40
ENDCHAR
STARTCHAR 112
ENCODING 112
DWIDTH 4 0
BBX 3 5 0 -1
BITMAP
C0
A0
A0
C0
80
ENDCHAR
STARTCHAR 113
ENCODING 113
DWIDTH 4 0
BBX 3 5 0 -1
BITMAP
60
A0
A0
60
20
ENDCHAR
STARTCHAR 114
ENCODING 114
DWIDTH 4 0
BBX 3 4 0 0
BITMAP
60
80
80
80
ENDCHAR
STARTCHAR 115
ENCODING 115
DWIDTH 4 0
BBX 3 4 0 0
BITMAP
60
C0
60
C0
ENDCHAR
STARTCHAR 116
ENCODING 116
DWIDTH 4 0
BBX 3 5 0 0
BITMAP
40
E0
40
40
60
ENDCHAR
STARTCHAR 117
ENCODING 117
DWIDTH 4 0
BBX 3 4 0 0
BITMAP
A0
A0
A0
60
ENDCHAR
STARTCHAR 118
ENCODING 118
DWIDTH 4 0
BBX 3 4 0 0
BITMAP
A0
A0
E0
40
ENDCHAR
STARTCHAR 119
ENCODING 119
DWIDTH 4 0
BBX 3 4 0 0
BITMAP
A0
E0
E0
E0
ENDCHAR
STARTCHAR 120
ENCODING 120
DWIDTH 4 0
BBX 3 4 0 0
BITMAP
A0
40
40
A0
ENDCHAR
STARTCHAR 121
ENCODING 121
DWIDTH 4 0
BBX 3 5 0 -1
BITMAP
A0
A0
60
20
40
ENDCHAR
STARTCHAR 122
ENCODING 122
DWIDTH 4 0
BBX 3 4 0 0
BITMAP
E0
60
C0
E0
ENDCHAR
STARTCHAR 123
ENCODING 123
DWIDTH 4 0
BBX 3 5 0 0
BITMAP
60
40
80
40
60
ENDCHAR
STARTCHAR 124
ENCODING 124
DWIDTH 4 0
BBX 1 5 1 0
BITMAP
80
80
00
80
80
ENDCHAR
STARTCHAR 125
ENCODING 125
DWIDTH 4 0
BBX 3 5 0 0
BITMAP
C0
40
20
40
C0
ENDCHAR
ENDFONT
